# xmcd
#
# Track frame offsets:
#	150
#	13067
#	24342
#	37812
#	51222
#	64160
#	74927
#	86827
#	99775
#	112652
#	125025
#	138605
#	150620
#	162132
#	174892
#	188317
#	199702
#	211717
#	222935
#	234207
#
# Disc length: 3280 seconds
# Revision: 8
# Processed by: cddbd v1.5.2PL0 Copyright (c) Steve Scherf et al.
# Submitted via: dBpowerAMP V12.0
#
DISCID=030cce14
DTITLE=Robert Johnson - The Complete Recordings [CD1]
DYEAR=1936
DGENRE=Blues
TTITLE0=Kind Hearted Woman Blues
TTITLE1=Kind Hearted Woman Blues
TTITLE2=I Believe I'll Dust My Broom
TTITLE3=Sweet Home Chicago
TTITLE4=Ramblin' On My Mind
TTITLE5=Ramblin' On My Mind
TTITLE6=When You Got A Good Friend
TTITLE7=When You Got A Good Friend
TTITLE8=Come On In My Kitchen
TTITLE9=Come On In My Kitchen
TTITLE10=Terraplane Blues
TTITLE11=Phonograph Blues
TTITLE12=Phonograph Blues
TTITLE13=32-20 Blues
TTITLE14=They're Red Hot
TTITLE15=Dead Shrimp Blues
TTITLE16=Cross Road Blues
TTITLE17=Cross Road Blues
TTITLE18=Walkin' Blues
TTITLE19=Last Fair Deal Gone Down
EXTD=
EXTT0=
EXTT1=
EXTT2=
EXTT3=
EXTT4=
EXTT5=
EXTT6=
EXTT7=
EXTT8=
EXTT9=
EXTT10=
EXTT11=
EXTT12=
EXTT13=
EXTT14=
EXTT15=
EXTT16=
EXTT17=
EXTT18=
EXTT19=
PLAYORDER=
